<?xml version="1.0" encoding="UTF-8"?>
<svg xmlns="http://www.w3.org/2000/svg" viewBox="0 0 48 48" width="48px" height="48px">
<g id="surface10516567">
<path style=" stroke:none;fill-rule:nonzero;fill:rgb(54.509807%,61.960787%,54.11765%);fill-opacity:1;" d="M 27.359375 24 C 27.359375 25.855469 25.855469 27.359375 24 27.359375 C 22.144531 27.359375 20.640625 25.855469 20.640625 24 C 20.640625 22.144531 22.144531 20.640625 24 20.640625 C 25.855469 20.640625 27.359375 22.144531 27.359375 24 Z M 27.359375 24 "/>
<path style=" stroke:none;fill-rule:nonzero;fill:rgb(0%,0%,0%);fill-opacity:1;" d="M 24 27.839844 C 21.882812 27.839844 20.160156 26.117188 20.160156 24 C 20.160156 21.882812 21.882812 20.160156 24 20.160156 C 26.117188 20.160156 27.839844 21.882812 27.839844 24 C 27.839844 26.117188 26.117188 27.839844 24 27.839844 Z M 24 21.121094 C 22.410156 21.121094 21.121094 22.410156 21.121094 24 C 21.121094 25.589844 22.410156 26.878906 24 26.878906 C 25.589844 26.878906 26.878906 25.589844 26.878906 24 C 26.878906 22.410156 25.589844 21.121094 24 21.121094 Z M 24 21.121094 "/>
<path style=" stroke:none;fill-rule:nonzero;fill:rgb(54.509807%,61.960787%,54.11765%);fill-opacity:1;" d="M 42.480469 24 C 42.480469 21.417969 39.371094 19.1875 34.550781 17.855469 C 35.789062 13.011719 35.410156 9.199219 33.195312 7.90625 C 32.320312 7.398438 31.261719 7.304688 30.042969 7.628906 C 28.210938 8.121094 26.113281 9.554688 24 11.660156 C 21.886719 9.554688 19.789062 8.121094 17.957031 7.628906 C 16.738281 7.304688 15.679688 7.398438 14.804688 7.90625 C 12.589844 9.199219 12.210938 13.011719 13.449219 17.855469 C 8.628906 19.1875 5.519531 21.417969 5.519531 24 C 5.519531 26.582031 8.628906 28.8125 13.449219 30.144531 C 12.210938 34.988281 12.589844 38.800781 14.804688 40.09375 C 15.339844 40.40625 15.941406 40.5625 16.609375 40.5625 C 17.03125 40.5625 17.480469 40.5 17.957031 40.371094 C 19.789062 39.878906 21.886719 38.445312 24 36.339844 C 26.113281 38.445312 28.210938 39.878906 30.042969 40.371094 C 30.519531 40.5 30.96875 40.5625 31.390625 40.5625 C 32.058594 40.5625 32.660156 40.40625 33.195312 40.09375 C 35.410156 38.800781 35.789062 34.988281 34.550781 30.144531 C 39.371094 28.8125 42.480469 26.582031 42.480469 24 Z M 30.417969 9.019531 C 30.765625 8.925781 31.085938 8.878906 31.386719 8.878906 C 31.796875 8.878906 32.160156 8.96875 32.46875 9.148438 C 33.953125 10.015625 34.253906 13.191406 33.148438 17.507812 C 31.625 17.164062 29.964844 16.90625 28.199219 16.746094 C 27.164062 15.253906 26.085938 13.894531 25 12.703125 C 26.925781 10.769531 28.820312 9.449219 30.417969 9.019531 Z M 29.164062 27.023438 C 28.597656 28.015625 28 28.964844 27.390625 29.875 C 26.304688 29.957031 25.175781 30 24 30 C 22.824219 30 21.695312 29.957031 20.609375 29.875 C 20 28.964844 19.402344 28.015625 18.839844 27.023438 C 18.253906 26 17.726562 24.988281 17.257812 24 C 17.726562 23.011719 18.253906 22.003906 18.839844 20.976562 C 19.40625 19.984375 20 19.035156 20.609375 18.125 C 21.695312 18.042969 22.824219 18 24 18 C 25.175781 18 26.304688 18.042969 27.390625 18.125 C 28 19.035156 28.597656 19.984375 29.164062 20.976562 C 29.746094 22.003906 30.273438 23.011719 30.742188 24 C 30.273438 24.988281 29.746094 26 29.164062 27.023438 Z M 31.507812 25.703125 C 32.007812 26.882812 32.421875 28.019531 32.753906 29.101562 C 31.664062 29.34375 30.484375 29.546875 29.226562 29.699219 C 29.628906 29.0625 30.027344 28.410156 30.414062 27.738281 C 30.800781 27.054688 31.164062 26.375 31.507812 25.703125 Z M 24 34.25 C 23.214844 33.382812 22.429688 32.421875 21.664062 31.382812 C 22.429688 31.417969 23.207031 31.441406 24 31.441406 C 24.792969 31.441406 25.570312 31.417969 26.335938 31.382812 C 25.570312 32.421875 24.785156 33.382812 24 34.25 Z M 18.773438 29.699219 C 17.515625 29.546875 16.335938 29.34375 15.242188 29.101562 C 15.578125 28.019531 15.992188 26.882812 16.492188 25.703125 C 16.835938 26.375 17.199219 27.054688 17.585938 27.738281 C 17.972656 28.410156 18.371094 29.0625 18.773438 29.699219 Z M 16.492188 22.300781 C 15.992188 21.117188 15.578125 19.980469 15.246094 18.898438 C 16.335938 18.65625 17.515625 18.453125 18.773438 18.300781 C 18.371094 18.9375 17.972656 19.589844 17.585938 20.261719 C 17.199219 20.945312 16.835938 21.625 16.492188 22.300781 Z M 24 13.75 C 24.785156 14.617188 25.570312 15.578125 26.335938 16.617188 C 25.570312 16.582031 24.792969 16.558594 24 16.558594 C 23.207031 16.558594 22.429688 16.582031 21.664062 16.617188 C 22.429688 15.578125 23.214844 14.617188 24 13.75 Z M 30.414062 20.265625 C 30.027344 19.589844 29.628906 18.9375 29.226562 18.300781 C 30.484375 18.453125 31.664062 18.65625 32.757812 18.898438 C 32.421875 19.980469 32.007812 21.117188 31.507812 22.300781 C 31.164062 21.625 30.800781 20.945312 30.414062 20.265625 Z M 15.53125 9.148438 C 15.839844 8.96875 16.203125 8.878906 16.613281 8.878906 C 16.910156 8.878906 17.234375 8.925781 17.582031 9.019531 C 19.179688 9.449219 21.074219 10.769531 23 12.703125 C 21.914062 13.894531 20.835938 15.253906 19.800781 16.746094 C 18.035156 16.90625 16.371094 17.164062 14.851562 17.507812 C 13.746094 13.191406 14.046875 10.015625 15.53125 9.148438 Z M 6.960938 24 C 6.960938 22.273438 9.550781 20.429688 13.839844 19.246094 C 14.304688 20.765625 14.917969 22.359375 15.667969 24 C 14.917969 25.640625 14.304688 27.234375 13.839844 28.753906 C 9.550781 27.570312 6.960938 25.726562 6.960938 24 Z M 17.582031 38.980469 C 16.75 39.203125 16.0625 39.160156 15.53125 38.851562 C 14.046875 37.984375 13.746094 34.808594 14.851562 30.492188 C 16.371094 30.835938 18.035156 31.09375 19.800781 31.253906 C 20.835938 32.746094 21.914062 34.105469 23 35.300781 C 21.074219 37.230469 19.179688 38.550781 17.582031 38.980469 Z M 32.46875 38.851562 C 31.9375 39.160156 31.25 39.203125 30.417969 38.980469 C 28.820312 38.550781 26.925781 37.230469 25 35.296875 C 26.085938 34.105469 27.164062 32.746094 28.199219 31.253906 C 29.964844 31.09375 31.625 30.835938 33.148438 30.492188 C 34.253906 34.808594 33.953125 37.984375 32.46875 38.851562 Z M 34.160156 28.753906 C 33.695312 27.234375 33.082031 25.640625 32.332031 24 C 33.082031 22.359375 33.695312 20.761719 34.160156 19.246094 C 38.449219 20.429688 41.039062 22.273438 41.039062 24 C 41.039062 25.726562 38.449219 27.570312 34.160156 28.753906 Z M 34.160156 28.753906 "/>
<path style=" stroke:none;fill-rule:nonzero;fill:rgb(0%,0%,0%);fill-opacity:1;" d="M 16.605469 40.800781 C 15.898438 40.800781 15.253906 40.632812 14.683594 40.300781 C 12.460938 39 11.910156 35.367188 13.160156 30.3125 C 8.148438 28.886719 5.28125 26.59375 5.28125 24 C 5.28125 21.40625 8.148438 19.113281 13.160156 17.6875 C 11.910156 12.632812 12.460938 9 14.683594 7.699219 C 15.617188 7.15625 16.734375 7.054688 18.019531 7.398438 C 19.800781 7.875 21.867188 9.230469 24 11.324219 C 26.132812 9.230469 28.199219 7.875 29.980469 7.398438 C 31.261719 7.054688 32.382812 7.15625 33.316406 7.699219 C 35.539062 9 36.089844 12.632812 34.839844 17.6875 C 39.851562 19.113281 42.71875 21.40625 42.71875 24 C 42.71875 26.59375 39.851562 28.886719 34.839844 30.3125 C 36.089844 35.367188 35.539062 39 33.316406 40.300781 C 32.390625 40.839844 31.257812 40.945312 29.984375 40.601562 C 28.199219 40.125 26.132812 38.769531 24 36.675781 C 21.867188 38.769531 19.800781 40.125 18.019531 40.601562 C 17.527344 40.734375 17.050781 40.800781 16.609375 40.800781 C 16.609375 40.800781 16.605469 40.800781 16.605469 40.800781 Z M 16.609375 7.679688 C 15.984375 7.679688 15.421875 7.824219 14.925781 8.113281 C 12.898438 9.296875 12.433594 12.917969 13.679688 17.796875 C 13.714844 17.925781 13.636719 18.054688 13.511719 18.089844 C 8.660156 19.425781 5.761719 21.636719 5.761719 24 C 5.761719 26.363281 8.660156 28.574219 13.511719 29.910156 C 13.640625 29.945312 13.714844 30.074219 13.679688 30.203125 C 12.433594 35.082031 12.898438 38.703125 14.925781 39.886719 C 15.421875 40.175781 15.984375 40.320312 16.605469 40.320312 C 16.605469 40.320312 16.609375 40.320312 16.609375 40.320312 C 17.011719 40.320312 17.441406 40.257812 17.894531 40.140625 C 19.644531 39.671875 21.699219 38.296875 23.832031 36.167969 C 23.925781 36.078125 24.074219 36.078125 24.167969 36.167969 C 26.300781 38.296875 28.355469 39.667969 30.105469 40.140625 C 31.253906 40.445312 32.257812 40.359375 33.074219 39.886719 C 35.101562 38.703125 35.566406 35.082031 34.320312 30.203125 C 34.285156 30.074219 34.359375 29.945312 34.488281 29.910156 C 39.339844 28.574219 42.238281 26.363281 42.238281 24 C 42.238281 21.636719 39.339844 19.425781 34.488281 18.089844 C 34.359375 18.054688 34.285156 17.925781 34.320312 17.796875 C 35.566406 12.917969 35.101562 9.296875 33.074219 8.113281 C 32.257812 7.636719 31.257812 7.554688 30.105469 7.859375 C 28.355469 8.328125 26.300781 9.703125 24.167969 11.832031 C 24.074219 11.921875 23.921875 11.921875 23.832031 11.832031 C 21.695312 9.703125 19.644531 8.328125 17.894531 7.859375 C 17.441406 7.738281 17.011719 7.679688 16.609375 7.679688 Z M 31.386719 39.359375 C 31.066406 39.359375 30.722656 39.3125 30.355469 39.210938 C 28.757812 38.785156 26.84375 37.488281 24.828125 35.46875 C 24.738281 35.378906 24.734375 35.230469 24.820312 35.136719 C 25.90625 33.945312 26.976562 32.589844 28 31.117188 C 28.042969 31.058594 28.105469 31.019531 28.175781 31.011719 C 29.910156 30.855469 31.566406 30.601562 33.097656 30.257812 C 33.222656 30.230469 33.351562 30.308594 33.382812 30.433594 C 34.503906 34.8125 34.199219 38.117188 32.589844 39.058594 C 32.242188 39.257812 31.839844 39.359375 31.386719 39.359375 Z M 25.332031 35.289062 C 27.226562 37.160156 29.003906 38.351562 30.480469 38.75 C 31.246094 38.953125 31.875 38.917969 32.347656 38.644531 C 33.71875 37.84375 33.957031 34.769531 32.972656 30.777344 C 31.519531 31.09375 29.960938 31.332031 28.332031 31.480469 C 27.363281 32.871094 26.355469 34.148438 25.332031 35.289062 Z M 16.613281 39.359375 C 16.160156 39.359375 15.757812 39.257812 15.410156 39.058594 C 13.800781 38.117188 13.496094 34.8125 14.617188 30.433594 C 14.648438 30.308594 14.777344 30.230469 14.902344 30.257812 C 16.433594 30.601562 18.089844 30.855469 19.824219 31.011719 C 19.894531 31.019531 19.957031 31.058594 20 31.117188 C 21.023438 32.589844 22.09375 33.945312 23.179688 35.136719 C 23.265625 35.230469 23.261719 35.378906 23.171875 35.46875 C 21.15625 37.488281 19.242188 38.785156 17.644531 39.210938 C 17.277344 39.308594 16.933594 39.359375 16.613281 39.359375 Z M 15.027344 30.777344 C 14.042969 34.765625 14.28125 37.84375 15.652344 38.644531 C 16.125 38.917969 16.753906 38.953125 17.519531 38.75 C 18.996094 38.351562 20.773438 37.160156 22.667969 35.289062 C 21.644531 34.148438 20.636719 32.871094 19.667969 31.480469 C 18.039062 31.332031 16.480469 31.09375 15.027344 30.777344 Z M 24 34.492188 C 23.933594 34.492188 23.867188 34.460938 23.820312 34.410156 C 23.023438 33.527344 22.234375 32.558594 21.472656 31.523438 C 21.417969 31.449219 21.410156 31.347656 21.453125 31.265625 C 21.496094 31.1875 21.578125 31.136719 21.675781 31.140625 C 23.265625 31.21875 24.734375 31.21875 26.324219 31.140625 C 26.417969 31.136719 26.503906 31.1875 26.546875 31.265625 C 26.589844 31.347656 26.582031 31.449219 26.527344 31.523438 C 25.765625 32.554688 24.976562 33.527344 24.179688 34.410156 C 24.132812 34.460938 24.066406 34.492188 24 34.492188 Z M 22.160156 31.644531 C 22.761719 32.4375 23.378906 33.191406 24 33.890625 C 24.621094 33.191406 25.238281 32.4375 25.839844 31.644531 C 24.585938 31.691406 23.414062 31.691406 22.160156 31.644531 Z M 24 30.238281 C 22.863281 30.238281 21.714844 30.199219 20.59375 30.113281 C 20.519531 30.109375 20.453125 30.070312 20.410156 30.007812 C 19.769531 29.054688 19.167969 28.089844 18.628906 27.140625 C 18.0625 26.148438 17.527344 25.128906 17.039062 24.101562 C 17.007812 24.039062 17.007812 23.960938 17.039062 23.898438 C 17.527344 22.871094 18.0625 21.851562 18.628906 20.859375 C 19.167969 19.910156 19.769531 18.949219 20.410156 17.992188 C 20.453125 17.929688 20.519531 17.890625 20.59375 17.886719 C 22.839844 17.71875 25.160156 17.71875 27.40625 17.886719 C 27.480469 17.890625 27.546875 17.929688 27.589844 17.992188 C 28.230469 18.949219 28.832031 19.910156 29.371094 20.859375 C 29.9375 21.851562 30.472656 22.871094 30.960938 23.898438 C 30.992188 23.960938 30.992188 24.039062 30.960938 24.101562 C 30.472656 25.128906 29.9375 26.148438 29.371094 27.140625 C 28.832031 28.089844 28.230469 29.054688 27.589844 30.007812 C 27.546875 30.070312 27.480469 30.109375 27.40625 30.113281 C 26.285156 30.199219 25.136719 30.238281 24 30.238281 Z M 20.746094 29.644531 C 22.894531 29.796875 25.105469 29.796875 27.253906 29.644531 C 27.867188 28.730469 28.4375 27.808594 28.953125 26.902344 C 29.496094 25.953125 30.007812 24.980469 30.476562 24 C 30.007812 23.019531 29.496094 22.042969 28.953125 21.097656 C 28.4375 20.191406 27.867188 19.269531 27.253906 18.355469 C 25.105469 18.203125 22.894531 18.203125 20.746094 18.355469 C 20.132812 19.269531 19.5625 20.191406 19.046875 21.097656 C 18.503906 22.046875 17.992188 23.019531 17.523438 24 C 17.992188 24.980469 18.503906 25.957031 19.046875 26.902344 C 19.5625 27.808594 20.132812 28.730469 20.746094 29.644531 Z M 29.226562 29.9375 C 29.144531 29.9375 29.066406 29.894531 29.023438 29.828125 C 28.972656 29.746094 28.972656 29.648438 29.023438 29.570312 C 29.46875 28.867188 29.855469 28.230469 30.203125 27.617188 C 30.570312 26.976562 30.9375 26.292969 31.296875 25.59375 C 31.335938 25.511719 31.425781 25.460938 31.519531 25.460938 C 31.609375 25.464844 31.695312 25.523438 31.730469 25.609375 C 32.21875 26.761719 32.640625 27.910156 32.984375 29.03125 C 33.003906 29.09375 32.996094 29.164062 32.964844 29.222656 C 32.929688 29.28125 32.875 29.320312 32.808594 29.335938 C 31.679688 29.585938 30.484375 29.789062 29.253906 29.9375 C 29.246094 29.9375 29.234375 29.9375 29.226562 29.9375 Z M 31.484375 26.269531 C 31.199219 26.816406 30.910156 27.347656 30.621094 27.855469 C 30.339844 28.347656 30.039062 28.855469 29.699219 29.394531 C 30.644531 29.269531 31.566406 29.113281 32.449219 28.921875 C 32.171875 28.050781 31.847656 27.164062 31.484375 26.269531 Z M 18.773438 29.9375 C 18.765625 29.9375 18.753906 29.9375 18.746094 29.9375 C 17.515625 29.789062 16.320312 29.585938 15.191406 29.335938 C 15.125 29.320312 15.070312 29.28125 15.035156 29.222656 C 15.003906 29.164062 14.996094 29.09375 15.015625 29.03125 C 15.359375 27.910156 15.78125 26.761719 16.269531 25.609375 C 16.304688 25.523438 16.390625 25.464844 16.480469 25.460938 C 16.570312 25.453125 16.664062 25.507812 16.703125 25.59375 C 17.0625 26.292969 17.429688 26.976562 17.796875 27.617188 C 18.144531 28.230469 18.53125 28.867188 18.976562 29.570312 C 19.027344 29.648438 19.027344 29.746094 18.976562 29.824219 C 18.933594 29.894531 18.855469 29.9375 18.773438 29.9375 Z M 15.550781 28.921875 C 16.433594 29.113281 17.355469 29.269531 18.300781 29.394531 C 17.960938 28.855469 17.660156 28.347656 17.378906 27.855469 C 17.089844 27.347656 16.800781 26.816406 16.515625 26.269531 C 16.152344 27.164062 15.828125 28.050781 15.550781 28.921875 Z M 34.160156 28.992188 C 34.054688 28.992188 33.960938 28.925781 33.929688 28.824219 C 33.460938 27.296875 32.851562 25.707031 32.113281 24.101562 C 32.085938 24.035156 32.085938 23.964844 32.113281 23.898438 C 32.851562 22.292969 33.460938 20.703125 33.929688 19.175781 C 33.96875 19.050781 34.101562 18.984375 34.222656 19.015625 C 38.574219 20.214844 41.28125 22.125 41.28125 24 C 41.28125 25.875 38.574219 27.785156 34.222656 28.984375 C 34.203125 28.988281 34.179688 28.992188 34.160156 28.992188 Z M 32.597656 24 C 33.285156 25.515625 33.863281 27.011719 34.320312 28.457031 C 38.265625 27.332031 40.800781 25.59375 40.800781 24 C 40.800781 22.40625 38.265625 20.667969 34.320312 19.542969 C 33.863281 20.988281 33.285156 22.484375 32.597656 24 Z M 13.839844 28.992188 C 13.820312 28.992188 13.796875 28.988281 13.777344 28.984375 C 9.425781 27.785156 6.71875 25.875 6.71875 24 C 6.71875 22.125 9.425781 20.214844 13.777344 19.015625 C 13.902344 18.984375 14.03125 19.050781 14.070312 19.175781 C 14.539062 20.703125 15.148438 22.292969 15.886719 23.898438 C 15.914062 23.964844 15.914062 24.035156 15.886719 24.101562 C 15.148438 25.707031 14.539062 27.296875 14.070312 28.824219 C 14.039062 28.925781 13.945312 28.992188 13.839844 28.992188 Z M 13.679688 19.542969 C 9.734375 20.667969 7.199219 22.40625 7.199219 24 C 7.199219 25.59375 9.734375 27.332031 13.679688 28.457031 C 14.136719 27.011719 14.714844 25.515625 15.402344 24 C 14.714844 22.484375 14.136719 20.988281 13.679688 19.542969 Z M 31.507812 22.539062 C 31.417969 22.539062 31.335938 22.488281 31.296875 22.410156 C 30.933594 21.695312 30.574219 21.03125 30.203125 20.382812 C 29.855469 19.773438 29.46875 19.132812 29.023438 18.429688 C 28.972656 18.351562 28.972656 18.253906 29.023438 18.175781 C 29.074219 18.097656 29.160156 18.054688 29.253906 18.0625 C 30.484375 18.210938 31.679688 18.414062 32.808594 18.664062 C 32.875 18.679688 32.929688 18.71875 32.964844 18.777344 C 33 18.835938 33.003906 18.90625 32.984375 18.96875 C 32.640625 20.089844 32.21875 21.242188 31.730469 22.390625 C 31.695312 22.476562 31.613281 22.535156 31.519531 22.539062 C 31.515625 22.539062 31.511719 22.539062 31.507812 22.539062 Z M 30.621094 20.144531 C 30.914062 20.660156 31.199219 21.179688 31.484375 21.730469 C 31.847656 20.839844 32.171875 19.949219 32.449219 19.078125 C 31.566406 18.886719 30.644531 18.730469 29.699219 18.605469 C 30.039062 19.148438 30.339844 19.65625 30.621094 20.144531 Z M 16.492188 22.539062 C 16.488281 22.539062 16.484375 22.539062 16.480469 22.539062 C 16.386719 22.535156 16.304688 22.480469 16.269531 22.394531 C 15.78125 21.242188 15.359375 20.089844 15.015625 18.96875 C 14.996094 18.90625 15.003906 18.835938 15.035156 18.777344 C 15.070312 18.722656 15.125 18.679688 15.191406 18.664062 C 16.320312 18.414062 17.515625 18.210938 18.746094 18.0625 C 18.839844 18.054688 18.929688 18.097656 18.976562 18.175781 C 19.027344 18.253906 19.027344 18.351562 18.976562 18.429688 C 18.53125 19.132812 18.144531 19.773438 17.796875 20.382812 C 17.425781 21.03125 17.066406 21.695312 16.703125 22.410156 C 16.664062 22.488281 16.582031 22.539062 16.492188 22.539062 Z M 15.550781 19.078125 C 15.828125 19.949219 16.152344 20.839844 16.515625 21.730469 C 16.800781 21.179688 17.085938 20.660156 17.378906 20.144531 C 17.660156 19.65625 17.960938 19.148438 18.300781 18.605469 C 17.355469 18.730469 16.433594 18.886719 15.550781 19.078125 Z M 33.148438 17.746094 C 33.132812 17.746094 33.113281 17.746094 33.097656 17.742188 C 31.566406 17.398438 29.910156 17.144531 28.175781 16.988281 C 28.105469 16.980469 28.042969 16.941406 28 16.882812 C 26.976562 15.40625 25.90625 14.054688 24.820312 12.863281 C 24.734375 12.769531 24.738281 12.621094 24.828125 12.53125 C 26.84375 10.511719 28.757812 9.214844 30.355469 8.789062 C 31.253906 8.546875 32.003906 8.601562 32.589844 8.941406 C 34.199219 9.882812 34.503906 13.1875 33.382812 17.566406 C 33.355469 17.675781 33.257812 17.746094 33.148438 17.746094 Z M 28.332031 16.519531 C 29.960938 16.667969 31.519531 16.90625 32.972656 17.222656 C 33.957031 13.234375 33.71875 10.15625 32.347656 9.355469 C 31.875 9.082031 31.246094 9.046875 30.480469 9.25 C 29.003906 9.648438 27.226562 10.839844 25.328125 12.710938 C 26.355469 13.851562 27.363281 15.128906 28.332031 16.519531 Z M 14.851562 17.746094 C 14.742188 17.746094 14.644531 17.675781 14.617188 17.566406 C 13.496094 13.1875 13.800781 9.882812 15.410156 8.941406 C 15.996094 8.601562 16.75 8.546875 17.644531 8.789062 C 19.242188 9.21875 21.15625 10.511719 23.171875 12.53125 C 23.261719 12.621094 23.265625 12.769531 23.179688 12.863281 C 22.09375 14.054688 21.023438 15.410156 19.996094 16.882812 C 19.957031 16.941406 19.894531 16.980469 19.820312 16.988281 C 18.089844 17.144531 16.433594 17.398438 14.902344 17.742188 C 14.886719 17.746094 14.867188 17.746094 14.851562 17.746094 Z M 15.652344 9.355469 C 14.28125 10.15625 14.042969 13.234375 15.027344 17.222656 C 16.480469 16.90625 18.039062 16.667969 19.667969 16.519531 C 20.636719 15.128906 21.644531 13.851562 22.667969 12.710938 C 20.773438 10.839844 18.996094 9.648438 17.519531 9.25 C 16.753906 9.046875 16.125 9.082031 15.652344 9.355469 Z M 26.335938 16.859375 C 26.332031 16.859375 26.328125 16.859375 26.324219 16.859375 C 24.734375 16.78125 23.265625 16.78125 21.675781 16.859375 C 21.578125 16.859375 21.496094 16.8125 21.453125 16.730469 C 21.410156 16.652344 21.417969 16.550781 21.472656 16.476562 C 22.234375 15.441406 23.023438 14.46875 23.824219 13.585938 C 23.914062 13.488281 24.085938 13.488281 24.179688 13.585938 C 24.976562 14.46875 25.765625 15.441406 26.527344 16.476562 C 26.582031 16.550781 26.589844 16.652344 26.546875 16.730469 C 26.503906 16.808594 26.421875 16.859375 26.335938 16.859375 Z M 24 16.320312 C 24.597656 16.320312 25.214844 16.332031 25.839844 16.355469 C 25.238281 15.5625 24.621094 14.808594 24 14.109375 C 23.378906 14.808594 22.761719 15.5625 22.160156 16.355469 C 22.785156 16.332031 23.402344 16.320312 24 16.320312 Z M 24 16.320312 "/>
</g>
</svg>
