<?xml version="1.0" encoding="UTF-8"?>
<svg xmlns="http://www.w3.org/2000/svg" viewBox="0 0 48 48" width="48px" height="48px" >
<g id="surface10514771">
<path style=" stroke:none;fill-rule:nonzero;fill:rgb(54.509807%,61.960787%,54.11765%);fill-opacity:1;" d="M 26.597656 0 C 29.128906 6.109375 17.464844 9.851562 16.382812 14.941406 C 15.398438 19.617188 23.300781 25.097656 23.308594 25.097656 C 22.109375 23.164062 21.222656 21.535156 20.019531 18.519531 C 17.984375 13.429688 32.445312 8.835938 26.597656 0 Z M 34.269531 8.480469 C 34.269531 8.480469 24.117188 9.136719 23.597656 15.921875 C 23.367188 18.945312 26.277344 20.53125 26.367188 22.730469 C 26.429688 24.527344 24.578125 26.019531 24.578125 26.019531 C 24.578125 26.019531 27.878906 25.414062 28.902344 22.671875 C 30.035156 19.628906 26.71875 17.554688 27.058594 15.117188 C 27.382812 12.785156 34.269531 8.480469 34.269531 8.480469 Z M 36.75 24.117188 C 35.683594 24.066406 34.476562 24.46875 33.402344 25.269531 C 35.507812 24.792969 37.328125 26.140625 37.328125 27.691406 C 37.328125 31.167969 32.480469 34.441406 32.480469 34.441406 C 32.480469 34.441406 39.980469 33.585938 39.980469 27.867188 C 39.980469 25.507812 38.523438 24.203125 36.75 24.117188 Z M 16.789062 24.171875 C 14.164062 24.265625 8.941406 24.707031 8.941406 26.769531 C 8.941406 29.640625 21.160156 29.863281 29.882812 28.097656 C 29.882812 28.097656 32.207031 26.410156 32.828125 25.789062 C 27.109375 27 14.078125 27.1875 14.078125 26.132812 C 14.078125 25.167969 18.289062 24.171875 18.289062 24.171875 C 18.289062 24.171875 17.660156 24.144531 16.789062 24.171875 Z M 16.039062 29.480469 C 14.601562 29.480469 12.460938 30.621094 12.460938 31.730469 C 12.460938 33.964844 23.234375 35.683594 31.210938 32.421875 L 28.441406 30.691406 C 23.035156 32.496094 13.089844 31.898438 16.039062 29.480469 Z M 17.367188 34.5 C 15.402344 34.5 14.132812 35.761719 14.132812 36.691406 C 14.132812 39.554688 25.816406 39.835938 30.460938 36.921875 L 27.519531 34.960938 C 24.050781 36.484375 15.359375 36.707031 17.367188 34.5 Z M 10.789062 37.097656 C 7.59375 37.03125 5.539062 38.507812 5.539062 39.75 C 5.539062 46.347656 38.308594 46.03125 38.308594 39.289062 C 38.308594 38.171875 37.03125 37.636719 36.578125 37.382812 C 39.253906 43.832031 9.808594 43.328125 9.808594 39.519531 C 9.808594 38.652344 11.957031 37.789062 13.960938 38.191406 L 12.230469 37.210938 C 11.734375 37.132812 11.242188 37.101562 10.789062 37.097656 Z M 41.710938 41.539062 C 36.734375 46.449219 24.109375 48.210938 11.421875 45.171875 C 24.109375 50.582031 41.652344 47.574219 41.710938 41.539062 Z M 41.710938 41.539062 "/>
</g>
</svg>
