<?xml version="1.0" encoding="UTF-8"?>
<svg xmlns="http://www.w3.org/2000/svg" viewBox="0 0 48 48" width="48px" height="48px">
<g id="surface10539534">
<path style=" stroke:none;fill-rule:nonzero;fill:rgb(54.509807%,61.960787%,54.11765%);fill-opacity:1;" d="M 26 2 L 16 6 L 8 14 L 2 24 L 2 36 C 2.125 40.414062 3.898438 43.1875 6.164062 44.554688 C 8.289062 45.835938 10.710938 45.960938 12 46 C 12.085938 46 45.992188 45.992188 45.992188 45.992188 C 45.992188 45.992188 46 12.023438 46 12 C 46.007812 10.992188 45.898438 9.523438 45.640625 8.515625 C 44.859375 5.460938 42.296875 2.734375 38 2 Z M 32.773438 5.710938 L 37.476562 5.710938 C 40.679688 6.265625 41.789062 7.59375 42.1875 9.554688 C 42.523438 11.257812 42.289062 13.007812 42.1875 13.632812 Z M 26 6 L 29.617188 7.898438 L 26.75 16.90625 L 17.625 26.03125 L 7.867188 27.632812 L 6 24 L 10.664062 16.5 L 18.664062 8.5 Z M 32.65625 10.476562 L 40.234375 16.734375 L 30.710938 16.734375 Z M 30.367188 20.40625 L 39.945312 20.40625 C 38.351562 23.640625 36.203125 26.585938 33.75 29.414062 Z M 27.039062 21.898438 L 30.132812 30.164062 L 21.867188 27.0625 Z M 42.414062 23.507812 L 42.414062 39.804688 L 35.53125 32.914062 C 38.117188 30.03125 40.515625 26.945312 42.414062 23.507812 Z M 16.1875 30.046875 L 14.179688 39.171875 L 9.765625 31.078125 Z M 19.859375 30.21875 L 29.445312 33.773438 C 25.796875 37.023438 21.90625 39.78125 17.390625 41.296875 Z M 5.6875 31.25 L 11.773438 42.382812 C 10.632812 42.328125 9.242188 42.179688 8.15625 41.523438 C 6.90625 40.773438 5.796875 39.492188 5.6875 36.015625 Z M 32.945312 35.609375 L 39.773438 42.4375 L 23.882812 42.4375 C 27.21875 40.554688 30.195312 38.148438 32.945312 35.609375 Z M 32.945312 35.609375 "/>
</g>
</svg>
